<svg width="27" height="27" viewBox="0 0 27 27" fill="none" xmlns="http://www.w3.org/2000/svg">
<path d="M24.3 0H2.7C1.20883 0 0 1.20883 0 2.7V24.3C0 25.7912 1.20883 27 2.7 27H24.3C25.7912 27 27 25.7912 27 24.3V2.7C27 1.20883 25.7912 0 24.3 0Z" fill="#1A1A1A"/>
<path d="M3.97815 3.57265H23.1282V22.5806H3.97815V3.57265Z" fill="#1A1A1A"/>
<g clip-path="url(#clip0_23_25)">
<path fill-rule="evenodd" clip-rule="evenodd" d="M15.9715 12.0012H18.5842V12.4796H17.5477V14.9965H17.0294V12.4796H15.9715V12.0012ZM20.7598 14.0595C20.7542 14.0066 20.7296 13.965 20.6868 13.9354C20.6435 13.9054 20.5878 13.8906 20.5192 13.8906C20.4712 13.8906 20.4299 13.8979 20.3953 13.9121C20.361 13.9264 20.3344 13.9456 20.3159 13.97C20.2978 13.9944 20.2887 14.0223 20.2878 14.0534C20.2878 14.0795 20.2942 14.1022 20.3065 14.1211C20.3188 14.1403 20.3353 14.1566 20.3566 14.1696C20.3777 14.183 20.4012 14.1938 20.427 14.2028C20.453 14.2118 20.4788 14.2193 20.5049 14.2254L20.6247 14.2545C20.6728 14.2655 20.7193 14.2804 20.7642 14.2993C20.8087 14.3179 20.8491 14.3414 20.8846 14.3699C20.92 14.3984 20.9481 14.4327 20.9687 14.4728C20.9895 14.5132 21 14.5603 21 14.6143C21 14.6876 20.981 14.7518 20.9429 14.8073C20.9045 14.8625 20.8494 14.9058 20.7771 14.9369C20.705 14.968 20.618 14.9837 20.5154 14.9837C20.4164 14.9837 20.33 14.9686 20.2573 14.9384C20.1844 14.9084 20.1272 14.8646 20.0862 14.807C20.0452 14.7492 20.0232 14.6788 20.02 14.596H20.2474C20.2506 14.6393 20.2646 14.6754 20.2887 14.7047C20.3127 14.7335 20.3443 14.7547 20.383 14.7692C20.422 14.7832 20.4656 14.7904 20.5137 14.7904C20.5638 14.7904 20.608 14.7829 20.6464 14.7681C20.6842 14.7532 20.7141 14.7329 20.7354 14.7059C20.7574 14.6797 20.7683 14.6483 20.7686 14.6126C20.7683 14.58 20.7583 14.553 20.7396 14.5315C20.7202 14.5103 20.6936 14.4925 20.6593 14.478C20.625 14.4638 20.5849 14.4507 20.5392 14.4394L20.3938 14.403C20.289 14.3766 20.2058 14.3362 20.1448 14.2824C20.0839 14.2283 20.0537 14.1571 20.0537 14.0676C20.0537 13.9941 20.0739 13.9296 20.1152 13.8743C20.156 13.8191 20.2116 13.7761 20.2822 13.7456C20.3531 13.7148 20.4331 13.6997 20.5225 13.6997C20.613 13.6997 20.6924 13.7148 20.7609 13.7456C20.8292 13.7761 20.8831 13.8185 20.9221 13.8729C20.961 13.9272 20.9812 13.9891 20.9824 14.0595H20.7598ZM19.5853 13.7165H19.8149V14.594C19.8146 14.6748 19.7971 14.7437 19.7625 14.8018C19.7279 14.8599 19.6796 14.9041 19.6181 14.9352C19.5565 14.9663 19.4845 14.982 19.4027 14.982C19.328 14.982 19.2609 14.9686 19.2012 14.9425C19.1414 14.9163 19.0939 14.8773 19.0594 14.8259C19.0242 14.7742 19.0069 14.7102 19.0069 14.6332H19.2369C19.2372 14.6669 19.2451 14.696 19.2598 14.7204C19.2744 14.7448 19.2949 14.7634 19.3207 14.7765C19.3471 14.7896 19.3775 14.796 19.4115 14.796C19.4484 14.796 19.4798 14.7884 19.5056 14.773C19.5311 14.7579 19.551 14.7352 19.5645 14.705C19.5779 14.6751 19.585 14.6382 19.5853 14.594V13.7165ZM18.7008 14.9782C18.6627 14.9782 18.6305 14.9651 18.6035 14.939C18.5766 14.9131 18.5631 14.8814 18.5634 14.8439C18.5631 14.8076 18.5766 14.7765 18.6035 14.7503C18.6305 14.7242 18.6627 14.7111 18.7008 14.7111C18.7374 14.7111 18.7693 14.7242 18.7963 14.7503C18.8235 14.7765 18.8373 14.8076 18.8376 14.8439C18.8373 14.8686 18.8312 14.8913 18.8183 14.9116C18.8054 14.9323 18.789 14.9483 18.7682 14.9602C18.7477 14.9721 18.7254 14.9782 18.7008 14.9782ZM9.06211 14.9741L6.64775 12H6V14.9953H6.51826V12.6403L8.429 14.9965H11.6745V14.5181H9.58008V13.7276H11.2644V13.2492H9.58008V12.4796H11.6745V12.0012H9.06182V12.4796H9.06211V14.9741ZM13.6752 14.142L13.3354 13.7229L12.2991 15H12.9791L13.6752 14.142ZM12.9791 12.0026H12.3009L14.7302 14.9977H15.4102L14.1955 13.5012L15.4084 12.0047L14.7302 12.0058L13.856 13.0829L12.9791 12.0026Z" fill="white"/>
</g>
<defs>
<clipPath id="clip0_23_25">
<rect width="15" height="3" fill="white" transform="translate(6 12)"/>
</clipPath>
</defs>
</svg>
