<svg width="28" height="26" viewBox="0 0 28 26" fill="none" xmlns="http://www.w3.org/2000/svg">
<path d="M24.375 0H2.70833C1.21256 0 0 1.16406 0 2.6V23.4C0 24.8359 1.21256 26 2.70833 26H24.375C25.8708 26 27.0833 24.8359 27.0833 23.4V2.6C27.0833 1.16406 25.8708 0 24.375 0Z" fill="#38BDF8"/>
<mask id="mask0_24_11" style="mask-type:alpha" maskUnits="userSpaceOnUse" x="3" y="2" width="21" height="21">
<rect x="3.25" y="2.16667" width="20.6034" height="20.6034" fill="#D9D9D9"/>
</mask>
<g mask="url(#mask0_24_11)">
<path d="M13.5517 21.0531C13.1797 21.0531 12.8435 20.9637 12.543 20.7848C12.2425 20.606 12.0064 20.3663 11.8348 20.0659C11.3626 20.0659 10.9584 19.8978 10.6222 19.5615C10.2859 19.2253 10.1178 18.8211 10.1178 18.3489V15.3013C9.27364 14.7433 8.59759 14.0065 8.08966 13.0908C7.58172 12.1751 7.32776 11.1807 7.32776 10.1076C7.32776 8.37631 7.93227 6.90617 9.14129 5.69715C10.3503 4.48813 11.8204 3.88362 13.5517 3.88362C15.283 3.88362 16.7531 4.48813 17.9621 5.69715C19.1711 6.90617 19.7756 8.37631 19.7756 10.1076C19.7756 11.2093 19.5217 12.2108 19.0137 13.1122C18.5058 14.0136 17.8298 14.7433 16.9856 15.3013V18.3489C16.9856 18.8211 16.8175 19.2253 16.4812 19.5615C16.145 19.8978 15.7408 20.0659 15.2687 20.0659C15.097 20.3663 14.8609 20.606 14.5604 20.7848C14.2599 20.9637 13.9237 21.0531 13.5517 21.0531ZM11.8348 18.3489H15.2687V17.5763H11.8348V18.3489ZM11.8348 16.7178H15.2687V15.9023H11.8348V16.7178ZM14.1956 14.1853V11.8674L16.0842 9.97879L15.1828 9.07739L13.5517 10.7085L11.9206 9.07739L11.0192 9.97879L12.9078 11.8674V14.1853H14.1956Z" fill="#353535"/>
</g>
</svg>
