<svg width="15" height="21" viewBox="0 0 15 21" fill="none" xmlns="http://www.w3.org/2000/svg">
<path d="M7.37652 20.349C6.93563 20.349 6.53713 20.243 6.18102 20.0311C5.82491 19.8191 5.54511 19.5351 5.34162 19.179C4.78202 19.179 4.30297 18.9797 3.90447 18.5812C3.50597 18.1827 3.30672 17.7037 3.30672 17.1441V13.5321C2.30622 12.8708 1.50498 11.9975 0.902988 10.9122C0.300996 9.82689 0 8.64834 0 7.37652C0 5.32466 0.716456 3.58228 2.14937 2.14937C3.58228 0.716456 5.32466 0 7.37652 0C9.42839 0 11.1708 0.716456 12.6037 2.14937C14.0366 3.58228 14.753 5.32466 14.753 7.37652C14.753 8.68225 14.4521 9.86928 13.8501 10.9376C13.2481 12.0059 12.4468 12.8708 11.4463 13.5321V17.1441C11.4463 17.7037 11.2471 18.1827 10.8486 18.5812C10.4501 18.9797 9.97103 19.179 9.41143 19.179C9.20794 19.5351 8.92814 19.8191 8.57203 20.0311C8.21592 20.243 7.81742 20.349 7.37652 20.349ZM5.34162 17.1441H9.41143V16.2284H5.34162V17.1441ZM5.34162 15.2109H9.41143V14.2443H5.34162V15.2109ZM8.13961 12.2094V9.4623L10.378 7.22391L9.30968 6.15558L7.37652 8.08874L5.44337 6.15558L4.37504 7.22391L6.61344 9.4623V12.2094H8.13961Z" fill="#353535"/>
</svg>
